<mxfile host="app.diagrams.net" modified="2024-05-31T22:22:17.156Z" agent="Mozilla/5.0 (Windows NT 10.0; Win64; x64; rv:126.0) Gecko/20100101 Firefox/126.0" etag="GPr8RYnxVY-_RL4IM2KC" version="24.4.13" type="device">
  <diagram name="Page-1" id="J4l3qNTIwQKnPK3PvDyN">
    <mxGraphModel dx="2569" dy="768" grid="1" gridSize="10" guides="1" tooltips="1" connect="1" arrows="1" fold="1" page="1" pageScale="1" pageWidth="1169" pageHeight="827" math="0" shadow="0">
      <root>
        <mxCell id="0" />
        <mxCell id="1" parent="0" />
        <mxCell id="yo6jUP9kp3zcqBxJjkfc-1" value="GDI" style="text;html=1;align=center;verticalAlign=middle;whiteSpace=wrap;rounded=0;fontFamily=Lucida Console;fontStyle=1" vertex="1" parent="1">
          <mxGeometry x="-910" y="20" width="60" height="30" as="geometry" />
        </mxCell>
        <mxCell id="yo6jUP9kp3zcqBxJjkfc-4" value="" style="edgeStyle=orthogonalEdgeStyle;rounded=0;orthogonalLoop=1;jettySize=auto;html=1;fontFamily=Lucida Console;" edge="1" parent="1" source="yo6jUP9kp3zcqBxJjkfc-2" target="yo6jUP9kp3zcqBxJjkfc-3">
          <mxGeometry relative="1" as="geometry" />
        </mxCell>
        <mxCell id="yo6jUP9kp3zcqBxJjkfc-2" value="MCV" style="text;html=1;align=center;verticalAlign=middle;whiteSpace=wrap;rounded=0;fontFamily=Lucida Console;fontStyle=1" vertex="1" parent="1">
          <mxGeometry x="-560" y="60" width="60" height="30" as="geometry" />
        </mxCell>
        <mxCell id="yo6jUP9kp3zcqBxJjkfc-7" value="" style="edgeStyle=orthogonalEdgeStyle;rounded=0;orthogonalLoop=1;jettySize=auto;html=1;fontFamily=Lucida Console;" edge="1" parent="1" source="yo6jUP9kp3zcqBxJjkfc-3" target="yo6jUP9kp3zcqBxJjkfc-6">
          <mxGeometry relative="1" as="geometry" />
        </mxCell>
        <mxCell id="yo6jUP9kp3zcqBxJjkfc-11" value="" style="edgeStyle=orthogonalEdgeStyle;rounded=0;orthogonalLoop=1;jettySize=auto;html=1;fontFamily=Lucida Console;" edge="1" parent="1" source="yo6jUP9kp3zcqBxJjkfc-3" target="yo6jUP9kp3zcqBxJjkfc-10">
          <mxGeometry relative="1" as="geometry" />
        </mxCell>
        <mxCell id="yo6jUP9kp3zcqBxJjkfc-193" style="edgeStyle=orthogonalEdgeStyle;rounded=0;orthogonalLoop=1;jettySize=auto;html=1;exitX=0.5;exitY=1;exitDx=0;exitDy=0;entryX=0.5;entryY=0;entryDx=0;entryDy=0;" edge="1" parent="1" source="yo6jUP9kp3zcqBxJjkfc-3" target="yo6jUP9kp3zcqBxJjkfc-8">
          <mxGeometry relative="1" as="geometry">
            <Array as="points">
              <mxPoint x="-530" y="160" />
              <mxPoint x="-410" y="160" />
            </Array>
          </mxGeometry>
        </mxCell>
        <mxCell id="yo6jUP9kp3zcqBxJjkfc-3" value="&lt;div&gt;Power plant&lt;/div&gt;" style="text;html=1;align=center;verticalAlign=middle;whiteSpace=wrap;rounded=0;fontFamily=Lucida Console;" vertex="1" parent="1">
          <mxGeometry x="-560" y="120" width="60" height="30" as="geometry" />
        </mxCell>
        <mxCell id="yo6jUP9kp3zcqBxJjkfc-20" style="edgeStyle=orthogonalEdgeStyle;rounded=0;orthogonalLoop=1;jettySize=auto;html=1;exitX=0.5;exitY=1;exitDx=0;exitDy=0;entryX=1;entryY=0.5;entryDx=0;entryDy=0;fontFamily=Lucida Console;" edge="1" parent="1" source="yo6jUP9kp3zcqBxJjkfc-6" target="yo6jUP9kp3zcqBxJjkfc-19">
          <mxGeometry relative="1" as="geometry" />
        </mxCell>
        <mxCell id="yo6jUP9kp3zcqBxJjkfc-21" style="edgeStyle=orthogonalEdgeStyle;rounded=0;orthogonalLoop=1;jettySize=auto;html=1;exitX=0;exitY=0.5;exitDx=0;exitDy=0;fontFamily=Lucida Console;" edge="1" parent="1" source="yo6jUP9kp3zcqBxJjkfc-6" target="yo6jUP9kp3zcqBxJjkfc-18">
          <mxGeometry relative="1" as="geometry" />
        </mxCell>
        <mxCell id="yo6jUP9kp3zcqBxJjkfc-6" value="Tiberium Refiner" style="text;html=1;align=center;verticalAlign=middle;whiteSpace=wrap;rounded=0;fontFamily=Lucida Console;" vertex="1" parent="1">
          <mxGeometry x="-560" y="180" width="60" height="30" as="geometry" />
        </mxCell>
        <mxCell id="yo6jUP9kp3zcqBxJjkfc-26" value="" style="edgeStyle=orthogonalEdgeStyle;rounded=0;orthogonalLoop=1;jettySize=auto;html=1;fontFamily=Lucida Console;" edge="1" parent="1" source="yo6jUP9kp3zcqBxJjkfc-8" target="yo6jUP9kp3zcqBxJjkfc-22">
          <mxGeometry relative="1" as="geometry" />
        </mxCell>
        <mxCell id="yo6jUP9kp3zcqBxJjkfc-27" value="" style="edgeStyle=orthogonalEdgeStyle;rounded=0;orthogonalLoop=1;jettySize=auto;html=1;fontFamily=Lucida Console;" edge="1" parent="1" source="yo6jUP9kp3zcqBxJjkfc-8" target="yo6jUP9kp3zcqBxJjkfc-23">
          <mxGeometry relative="1" as="geometry" />
        </mxCell>
        <mxCell id="yo6jUP9kp3zcqBxJjkfc-28" value="" style="edgeStyle=orthogonalEdgeStyle;rounded=0;orthogonalLoop=1;jettySize=auto;html=1;fontFamily=Lucida Console;" edge="1" parent="1" source="yo6jUP9kp3zcqBxJjkfc-8" target="yo6jUP9kp3zcqBxJjkfc-23">
          <mxGeometry relative="1" as="geometry" />
        </mxCell>
        <mxCell id="yo6jUP9kp3zcqBxJjkfc-195" style="edgeStyle=orthogonalEdgeStyle;rounded=0;orthogonalLoop=1;jettySize=auto;html=1;exitX=1;exitY=0.5;exitDx=0;exitDy=0;entryX=0.5;entryY=0;entryDx=0;entryDy=0;" edge="1" parent="1" source="yo6jUP9kp3zcqBxJjkfc-8" target="yo6jUP9kp3zcqBxJjkfc-24">
          <mxGeometry relative="1" as="geometry" />
        </mxCell>
        <mxCell id="yo6jUP9kp3zcqBxJjkfc-197" style="edgeStyle=orthogonalEdgeStyle;rounded=0;orthogonalLoop=1;jettySize=auto;html=1;exitX=0.5;exitY=1;exitDx=0;exitDy=0;entryX=0.5;entryY=0;entryDx=0;entryDy=0;" edge="1" parent="1" source="yo6jUP9kp3zcqBxJjkfc-8" target="yo6jUP9kp3zcqBxJjkfc-50">
          <mxGeometry relative="1" as="geometry" />
        </mxCell>
        <mxCell id="yo6jUP9kp3zcqBxJjkfc-198" style="edgeStyle=orthogonalEdgeStyle;rounded=0;orthogonalLoop=1;jettySize=auto;html=1;exitX=0.5;exitY=1;exitDx=0;exitDy=0;entryX=0.5;entryY=0;entryDx=0;entryDy=0;" edge="1" parent="1" source="yo6jUP9kp3zcqBxJjkfc-8" target="yo6jUP9kp3zcqBxJjkfc-107">
          <mxGeometry relative="1" as="geometry" />
        </mxCell>
        <mxCell id="yo6jUP9kp3zcqBxJjkfc-202" style="edgeStyle=orthogonalEdgeStyle;rounded=0;orthogonalLoop=1;jettySize=auto;html=1;exitX=1;exitY=0.5;exitDx=0;exitDy=0;entryX=0.5;entryY=0;entryDx=0;entryDy=0;" edge="1" parent="1" source="yo6jUP9kp3zcqBxJjkfc-8" target="yo6jUP9kp3zcqBxJjkfc-31">
          <mxGeometry relative="1" as="geometry">
            <Array as="points">
              <mxPoint x="-176" y="195" />
            </Array>
          </mxGeometry>
        </mxCell>
        <mxCell id="yo6jUP9kp3zcqBxJjkfc-8" value="Barracks" style="text;html=1;align=center;verticalAlign=middle;whiteSpace=wrap;rounded=0;fontFamily=Lucida Console;" vertex="1" parent="1">
          <mxGeometry x="-440" y="180" width="60" height="30" as="geometry" />
        </mxCell>
        <mxCell id="yo6jUP9kp3zcqBxJjkfc-10" value="Turbine" style="text;html=1;align=center;verticalAlign=middle;whiteSpace=wrap;rounded=0;fontFamily=Lucida Console;" vertex="1" parent="1">
          <mxGeometry x="-650" y="120" width="60" height="30" as="geometry" />
        </mxCell>
        <mxCell id="yo6jUP9kp3zcqBxJjkfc-18" value="Silo" style="text;html=1;align=center;verticalAlign=middle;whiteSpace=wrap;rounded=0;fontFamily=Lucida Console;" vertex="1" parent="1">
          <mxGeometry x="-640" y="180" width="60" height="30" as="geometry" />
        </mxCell>
        <mxCell id="yo6jUP9kp3zcqBxJjkfc-90" value="" style="edgeStyle=orthogonalEdgeStyle;rounded=0;orthogonalLoop=1;jettySize=auto;html=1;" edge="1" parent="1" source="yo6jUP9kp3zcqBxJjkfc-19" target="yo6jUP9kp3zcqBxJjkfc-39">
          <mxGeometry relative="1" as="geometry" />
        </mxCell>
        <mxCell id="yo6jUP9kp3zcqBxJjkfc-191" style="edgeStyle=orthogonalEdgeStyle;rounded=0;orthogonalLoop=1;jettySize=auto;html=1;exitX=0;exitY=0.5;exitDx=0;exitDy=0;entryX=1;entryY=0.5;entryDx=0;entryDy=0;" edge="1" parent="1" source="yo6jUP9kp3zcqBxJjkfc-19" target="yo6jUP9kp3zcqBxJjkfc-45">
          <mxGeometry relative="1" as="geometry">
            <Array as="points">
              <mxPoint x="-740" y="245" />
              <mxPoint x="-740" y="285" />
            </Array>
          </mxGeometry>
        </mxCell>
        <mxCell id="yo6jUP9kp3zcqBxJjkfc-192" style="edgeStyle=orthogonalEdgeStyle;rounded=0;orthogonalLoop=1;jettySize=auto;html=1;exitX=0;exitY=0.5;exitDx=0;exitDy=0;entryX=1;entryY=0.5;entryDx=0;entryDy=0;" edge="1" parent="1" source="yo6jUP9kp3zcqBxJjkfc-19" target="yo6jUP9kp3zcqBxJjkfc-42">
          <mxGeometry relative="1" as="geometry">
            <Array as="points">
              <mxPoint x="-740" y="245" />
              <mxPoint x="-740" y="345" />
            </Array>
          </mxGeometry>
        </mxCell>
        <mxCell id="yo6jUP9kp3zcqBxJjkfc-204" style="edgeStyle=orthogonalEdgeStyle;rounded=0;orthogonalLoop=1;jettySize=auto;html=1;exitX=0.5;exitY=1;exitDx=0;exitDy=0;entryX=0;entryY=0.5;entryDx=0;entryDy=0;dashed=1;dashPattern=8 8;" edge="1" parent="1" source="yo6jUP9kp3zcqBxJjkfc-19" target="yo6jUP9kp3zcqBxJjkfc-33">
          <mxGeometry relative="1" as="geometry">
            <Array as="points">
              <mxPoint x="-670" y="270" />
              <mxPoint x="-300" y="270" />
              <mxPoint x="-300" y="295" />
            </Array>
          </mxGeometry>
        </mxCell>
        <mxCell id="yo6jUP9kp3zcqBxJjkfc-19" value="&lt;div&gt;Radar&lt;/div&gt;" style="text;html=1;align=center;verticalAlign=middle;whiteSpace=wrap;rounded=0;fontFamily=Lucida Console;" vertex="1" parent="1">
          <mxGeometry x="-700" y="230" width="60" height="30" as="geometry" />
        </mxCell>
        <mxCell id="yo6jUP9kp3zcqBxJjkfc-22" value="Pavement" style="text;html=1;align=center;verticalAlign=middle;whiteSpace=wrap;rounded=0;fontFamily=Lucida Console;" vertex="1" parent="1">
          <mxGeometry x="-386" y="220" width="60" height="30" as="geometry" />
        </mxCell>
        <mxCell id="yo6jUP9kp3zcqBxJjkfc-23" value="Wall" style="text;html=1;align=center;verticalAlign=middle;whiteSpace=wrap;rounded=0;fontFamily=Lucida Console;" vertex="1" parent="1">
          <mxGeometry x="-316" y="220" width="60" height="30" as="geometry" />
        </mxCell>
        <mxCell id="yo6jUP9kp3zcqBxJjkfc-24" value="&lt;div&gt;Gate&lt;/div&gt;" style="text;html=1;align=center;verticalAlign=middle;whiteSpace=wrap;rounded=0;fontFamily=Lucida Console;" vertex="1" parent="1">
          <mxGeometry x="-266" y="220" width="60" height="30" as="geometry" />
        </mxCell>
        <mxCell id="yo6jUP9kp3zcqBxJjkfc-35" value="" style="edgeStyle=orthogonalEdgeStyle;rounded=0;orthogonalLoop=1;jettySize=auto;html=1;entryX=0.5;entryY=0;entryDx=0;entryDy=0;fontFamily=Lucida Console;" edge="1" parent="1" source="yo6jUP9kp3zcqBxJjkfc-31" target="yo6jUP9kp3zcqBxJjkfc-32">
          <mxGeometry relative="1" as="geometry" />
        </mxCell>
        <mxCell id="yo6jUP9kp3zcqBxJjkfc-36" value="" style="edgeStyle=orthogonalEdgeStyle;rounded=0;orthogonalLoop=1;jettySize=auto;html=1;fontFamily=Lucida Console;" edge="1" parent="1" source="yo6jUP9kp3zcqBxJjkfc-31" target="yo6jUP9kp3zcqBxJjkfc-33">
          <mxGeometry relative="1" as="geometry" />
        </mxCell>
        <mxCell id="yo6jUP9kp3zcqBxJjkfc-37" style="edgeStyle=orthogonalEdgeStyle;rounded=0;orthogonalLoop=1;jettySize=auto;html=1;exitX=0.5;exitY=1;exitDx=0;exitDy=0;entryX=0.5;entryY=0;entryDx=0;entryDy=0;fontFamily=Lucida Console;" edge="1" parent="1" source="yo6jUP9kp3zcqBxJjkfc-31" target="yo6jUP9kp3zcqBxJjkfc-34">
          <mxGeometry relative="1" as="geometry" />
        </mxCell>
        <mxCell id="yo6jUP9kp3zcqBxJjkfc-31" value="Component tower" style="text;html=1;align=center;verticalAlign=middle;whiteSpace=wrap;rounded=0;fontFamily=Lucida Console;" vertex="1" parent="1">
          <mxGeometry x="-206" y="210" width="60" height="30" as="geometry" />
        </mxCell>
        <mxCell id="yo6jUP9kp3zcqBxJjkfc-32" value="Vulcan cannon" style="text;html=1;align=center;verticalAlign=middle;whiteSpace=wrap;rounded=0;fontFamily=Lucida Console;" vertex="1" parent="1">
          <mxGeometry x="-146" y="280" width="60" height="30" as="geometry" />
        </mxCell>
        <mxCell id="yo6jUP9kp3zcqBxJjkfc-33" value="Sam Missile" style="text;html=1;align=center;verticalAlign=middle;whiteSpace=wrap;rounded=0;fontFamily=Lucida Console;" vertex="1" parent="1">
          <mxGeometry x="-206" y="280" width="60" height="30" as="geometry" />
        </mxCell>
        <mxCell id="yo6jUP9kp3zcqBxJjkfc-34" value="Grenade Launcher" style="text;html=1;align=center;verticalAlign=middle;whiteSpace=wrap;rounded=0;fontFamily=Lucida Console;" vertex="1" parent="1">
          <mxGeometry x="-66" y="280" width="60" height="30" as="geometry" />
        </mxCell>
        <mxCell id="yo6jUP9kp3zcqBxJjkfc-84" style="edgeStyle=orthogonalEdgeStyle;rounded=0;orthogonalLoop=1;jettySize=auto;html=1;entryX=1;entryY=0.5;entryDx=0;entryDy=0;fontFamily=Lucida Console;" edge="1" parent="1" source="yo6jUP9kp3zcqBxJjkfc-39" target="yo6jUP9kp3zcqBxJjkfc-76">
          <mxGeometry relative="1" as="geometry" />
        </mxCell>
        <mxCell id="yo6jUP9kp3zcqBxJjkfc-190" style="edgeStyle=orthogonalEdgeStyle;rounded=0;orthogonalLoop=1;jettySize=auto;html=1;exitX=0;exitY=0.5;exitDx=0;exitDy=0;entryX=1;entryY=0.5;entryDx=0;entryDy=0;" edge="1" parent="1" source="yo6jUP9kp3zcqBxJjkfc-39" target="yo6jUP9kp3zcqBxJjkfc-85">
          <mxGeometry relative="1" as="geometry" />
        </mxCell>
        <mxCell id="yo6jUP9kp3zcqBxJjkfc-39" value="Tech Center" style="text;html=1;align=center;verticalAlign=middle;whiteSpace=wrap;rounded=0;fontFamily=Lucida Console;" vertex="1" parent="1">
          <mxGeometry x="-850" y="210" width="70" height="30" as="geometry" />
        </mxCell>
        <mxCell id="yo6jUP9kp3zcqBxJjkfc-187" value="" style="edgeStyle=orthogonalEdgeStyle;rounded=0;orthogonalLoop=1;jettySize=auto;html=1;" edge="1" parent="1" source="yo6jUP9kp3zcqBxJjkfc-42" target="yo6jUP9kp3zcqBxJjkfc-112">
          <mxGeometry relative="1" as="geometry" />
        </mxCell>
        <mxCell id="yo6jUP9kp3zcqBxJjkfc-42" value="Helipad" style="text;html=1;align=center;verticalAlign=middle;whiteSpace=wrap;rounded=0;fontFamily=Lucida Console;" vertex="1" parent="1">
          <mxGeometry x="-830" y="330" width="60" height="30" as="geometry" />
        </mxCell>
        <mxCell id="yo6jUP9kp3zcqBxJjkfc-45" value="EMP" style="text;html=1;align=center;verticalAlign=middle;whiteSpace=wrap;rounded=0;fontFamily=Lucida Console;" vertex="1" parent="1">
          <mxGeometry x="-840" y="270" width="60" height="30" as="geometry" />
        </mxCell>
        <mxCell id="yo6jUP9kp3zcqBxJjkfc-49" value="Service depot" style="text;html=1;align=center;verticalAlign=middle;whiteSpace=wrap;rounded=0;fontFamily=Lucida Console;" vertex="1" parent="1">
          <mxGeometry x="-530" y="485" width="60" height="30" as="geometry" />
        </mxCell>
        <mxCell id="yo6jUP9kp3zcqBxJjkfc-200" value="" style="edgeStyle=orthogonalEdgeStyle;rounded=0;orthogonalLoop=1;jettySize=auto;html=1;" edge="1" parent="1" source="yo6jUP9kp3zcqBxJjkfc-50" target="yo6jUP9kp3zcqBxJjkfc-49">
          <mxGeometry relative="1" as="geometry" />
        </mxCell>
        <mxCell id="yo6jUP9kp3zcqBxJjkfc-201" style="edgeStyle=orthogonalEdgeStyle;rounded=0;orthogonalLoop=1;jettySize=auto;html=1;exitX=0.5;exitY=1;exitDx=0;exitDy=0;entryX=0.5;entryY=0;entryDx=0;entryDy=0;" edge="1" parent="1" source="yo6jUP9kp3zcqBxJjkfc-50" target="yo6jUP9kp3zcqBxJjkfc-109">
          <mxGeometry relative="1" as="geometry" />
        </mxCell>
        <mxCell id="yo6jUP9kp3zcqBxJjkfc-50" value="war factory" style="text;html=1;align=center;verticalAlign=middle;whiteSpace=wrap;rounded=0;fontFamily=Lucida Console;" vertex="1" parent="1">
          <mxGeometry x="-530" y="375" width="60" height="30" as="geometry" />
        </mxCell>
        <mxCell id="yo6jUP9kp3zcqBxJjkfc-76" value="Upgrade center" style="text;html=1;align=center;verticalAlign=middle;whiteSpace=wrap;rounded=0;fontFamily=Lucida Console;" vertex="1" parent="1">
          <mxGeometry x="-970" y="110" width="60" height="30" as="geometry" />
        </mxCell>
        <mxCell id="yo6jUP9kp3zcqBxJjkfc-88" value="" style="edgeStyle=orthogonalEdgeStyle;rounded=0;orthogonalLoop=1;jettySize=auto;html=1;" edge="1" parent="1" source="yo6jUP9kp3zcqBxJjkfc-85" target="yo6jUP9kp3zcqBxJjkfc-86">
          <mxGeometry relative="1" as="geometry" />
        </mxCell>
        <mxCell id="yo6jUP9kp3zcqBxJjkfc-85" value="Firestorm generator" style="text;html=1;align=center;verticalAlign=middle;whiteSpace=wrap;rounded=0;fontFamily=Lucida Console;" vertex="1" parent="1">
          <mxGeometry x="-970" y="70" width="60" height="30" as="geometry" />
        </mxCell>
        <mxCell id="yo6jUP9kp3zcqBxJjkfc-86" value="Firestorm wall" style="text;html=1;align=center;verticalAlign=middle;whiteSpace=wrap;rounded=0;fontFamily=Lucida Console;" vertex="1" parent="1">
          <mxGeometry x="-1070" y="70" width="60" height="30" as="geometry" />
        </mxCell>
        <mxCell id="yo6jUP9kp3zcqBxJjkfc-107" value="Units" style="text;html=1;align=center;verticalAlign=middle;whiteSpace=wrap;rounded=0;fontFamily=Lucida Console;fontStyle=5" vertex="1" parent="1">
          <mxGeometry x="-400" y="375" width="60" height="30" as="geometry" />
        </mxCell>
        <mxCell id="yo6jUP9kp3zcqBxJjkfc-109" value="Vehicules" style="text;html=1;align=center;verticalAlign=middle;whiteSpace=wrap;rounded=0;fontFamily=Lucida Console;fontStyle=5" vertex="1" parent="1">
          <mxGeometry x="-630" y="475" width="60" height="30" as="geometry" />
        </mxCell>
        <mxCell id="yo6jUP9kp3zcqBxJjkfc-112" value="Aircraft" style="text;html=1;align=center;verticalAlign=middle;whiteSpace=wrap;rounded=0;fontFamily=Lucida Console;fontStyle=5" vertex="1" parent="1">
          <mxGeometry x="-830" y="400" width="60" height="30" as="geometry" />
        </mxCell>
        <mxCell id="yo6jUP9kp3zcqBxJjkfc-205" value="" style="group" vertex="1" connectable="0" parent="1">
          <mxGeometry x="-860" y="520" width="250" height="200" as="geometry" />
        </mxCell>
        <mxCell id="yo6jUP9kp3zcqBxJjkfc-179" value="" style="rounded=1;whiteSpace=wrap;html=1;" vertex="1" parent="yo6jUP9kp3zcqBxJjkfc-205">
          <mxGeometry width="250" height="200" as="geometry" />
        </mxCell>
        <mxCell id="yo6jUP9kp3zcqBxJjkfc-119" value="Orca fighter" style="text;html=1;align=center;verticalAlign=middle;whiteSpace=wrap;rounded=0;fontFamily=Lucida Console;" vertex="1" parent="yo6jUP9kp3zcqBxJjkfc-205">
          <mxGeometry x="120" y="70" width="60" height="30" as="geometry" />
        </mxCell>
        <mxCell id="yo6jUP9kp3zcqBxJjkfc-120" value="Orca Bomber" style="text;html=1;align=center;verticalAlign=middle;whiteSpace=wrap;rounded=0;fontFamily=Lucida Console;" vertex="1" parent="yo6jUP9kp3zcqBxJjkfc-205">
          <mxGeometry x="120" y="120" width="60" height="30" as="geometry" />
        </mxCell>
        <mxCell id="yo6jUP9kp3zcqBxJjkfc-180" value="Aircraft" style="text;html=1;align=center;verticalAlign=middle;whiteSpace=wrap;rounded=0;fontFamily=Lucida Console;fontStyle=5" vertex="1" parent="yo6jUP9kp3zcqBxJjkfc-205">
          <mxGeometry x="95" y="10" width="60" height="30" as="geometry" />
        </mxCell>
        <mxCell id="yo6jUP9kp3zcqBxJjkfc-183" style="edgeStyle=orthogonalEdgeStyle;rounded=0;orthogonalLoop=1;jettySize=auto;html=1;exitX=1;exitY=0.5;exitDx=0;exitDy=0;entryX=0;entryY=0.5;entryDx=0;entryDy=0;" edge="1" parent="yo6jUP9kp3zcqBxJjkfc-205" source="yo6jUP9kp3zcqBxJjkfc-181" target="yo6jUP9kp3zcqBxJjkfc-182">
          <mxGeometry relative="1" as="geometry" />
        </mxCell>
        <mxCell id="yo6jUP9kp3zcqBxJjkfc-181" value="Service depot" style="text;html=1;align=center;verticalAlign=middle;whiteSpace=wrap;rounded=0;fontFamily=Lucida Console;" vertex="1" parent="yo6jUP9kp3zcqBxJjkfc-205">
          <mxGeometry x="20" y="160" width="60" height="30" as="geometry" />
        </mxCell>
        <mxCell id="yo6jUP9kp3zcqBxJjkfc-182" value="Orca Carryall" style="text;html=1;align=center;verticalAlign=middle;whiteSpace=wrap;rounded=0;fontFamily=Lucida Console;" vertex="1" parent="yo6jUP9kp3zcqBxJjkfc-205">
          <mxGeometry x="110" y="160" width="80" height="30" as="geometry" />
        </mxCell>
        <mxCell id="yo6jUP9kp3zcqBxJjkfc-206" value="" style="group" vertex="1" connectable="0" parent="1">
          <mxGeometry x="-580" y="520" width="250" height="280" as="geometry" />
        </mxCell>
        <mxCell id="yo6jUP9kp3zcqBxJjkfc-186" value="" style="rounded=1;whiteSpace=wrap;html=1;" vertex="1" parent="yo6jUP9kp3zcqBxJjkfc-206">
          <mxGeometry width="250" height="280" as="geometry" />
        </mxCell>
        <mxCell id="yo6jUP9kp3zcqBxJjkfc-12" value="Infantery" style="text;html=1;align=center;verticalAlign=middle;whiteSpace=wrap;rounded=0;fontFamily=Lucida Console;" vertex="1" parent="yo6jUP9kp3zcqBxJjkfc-206">
          <mxGeometry x="110" y="50" width="60" height="30" as="geometry" />
        </mxCell>
        <mxCell id="yo6jUP9kp3zcqBxJjkfc-13" value="Disk thrower" style="text;html=1;align=center;verticalAlign=middle;whiteSpace=wrap;rounded=0;fontFamily=Lucida Console;" vertex="1" parent="yo6jUP9kp3zcqBxJjkfc-206">
          <mxGeometry x="110" y="80" width="100" height="30" as="geometry" />
        </mxCell>
        <mxCell id="yo6jUP9kp3zcqBxJjkfc-14" value="Engeneer" style="text;html=1;align=center;verticalAlign=middle;whiteSpace=wrap;rounded=0;fontFamily=Lucida Console;" vertex="1" parent="yo6jUP9kp3zcqBxJjkfc-206">
          <mxGeometry x="110" y="110" width="60" height="30" as="geometry" />
        </mxCell>
        <mxCell id="yo6jUP9kp3zcqBxJjkfc-15" value="Medic" style="text;html=1;align=center;verticalAlign=middle;whiteSpace=wrap;rounded=0;fontFamily=Lucida Console;" vertex="1" parent="yo6jUP9kp3zcqBxJjkfc-206">
          <mxGeometry x="100" y="140" width="60" height="30" as="geometry" />
        </mxCell>
        <mxCell id="yo6jUP9kp3zcqBxJjkfc-75" style="edgeStyle=orthogonalEdgeStyle;rounded=0;orthogonalLoop=1;jettySize=auto;html=1;entryX=0;entryY=0.5;entryDx=0;entryDy=0;fontFamily=Lucida Console;" edge="1" parent="yo6jUP9kp3zcqBxJjkfc-206" source="yo6jUP9kp3zcqBxJjkfc-43" target="yo6jUP9kp3zcqBxJjkfc-44">
          <mxGeometry relative="1" as="geometry" />
        </mxCell>
        <mxCell id="yo6jUP9kp3zcqBxJjkfc-43" value="&lt;div&gt;Radar&lt;/div&gt;" style="text;html=1;align=center;verticalAlign=middle;whiteSpace=wrap;rounded=0;fontFamily=Lucida Console;" vertex="1" parent="yo6jUP9kp3zcqBxJjkfc-206">
          <mxGeometry x="20" y="170" width="60" height="30" as="geometry" />
        </mxCell>
        <mxCell id="yo6jUP9kp3zcqBxJjkfc-44" value="Jump jet infantry " style="text;html=1;align=center;verticalAlign=middle;whiteSpace=wrap;rounded=0;fontFamily=Lucida Console;" vertex="1" parent="yo6jUP9kp3zcqBxJjkfc-206">
          <mxGeometry x="100" y="170" width="135" height="30" as="geometry" />
        </mxCell>
        <mxCell id="yo6jUP9kp3zcqBxJjkfc-53" value="Ghost stalker" style="text;html=1;align=center;verticalAlign=middle;whiteSpace=wrap;rounded=0;fontFamily=Lucida Console;" vertex="1" parent="yo6jUP9kp3zcqBxJjkfc-206">
          <mxGeometry x="110" y="200" width="100" height="30" as="geometry" />
        </mxCell>
        <mxCell id="yo6jUP9kp3zcqBxJjkfc-185" value="Units" style="text;html=1;align=center;verticalAlign=middle;whiteSpace=wrap;rounded=0;fontFamily=Lucida Console;fontStyle=5" vertex="1" parent="yo6jUP9kp3zcqBxJjkfc-206">
          <mxGeometry x="95" y="20" width="60" height="30" as="geometry" />
        </mxCell>
        <mxCell id="yo6jUP9kp3zcqBxJjkfc-189" style="edgeStyle=orthogonalEdgeStyle;rounded=0;orthogonalLoop=1;jettySize=auto;html=1;exitX=1;exitY=0.5;exitDx=0;exitDy=0;entryX=0;entryY=0.5;entryDx=0;entryDy=0;" edge="1" parent="yo6jUP9kp3zcqBxJjkfc-206" source="yo6jUP9kp3zcqBxJjkfc-188" target="yo6jUP9kp3zcqBxJjkfc-53">
          <mxGeometry relative="1" as="geometry" />
        </mxCell>
        <mxCell id="yo6jUP9kp3zcqBxJjkfc-188" value="Tech Center" style="text;html=1;align=center;verticalAlign=middle;whiteSpace=wrap;rounded=0;fontFamily=Lucida Console;" vertex="1" parent="yo6jUP9kp3zcqBxJjkfc-206">
          <mxGeometry x="20" y="200" width="60" height="30" as="geometry" />
        </mxCell>
        <mxCell id="yo6jUP9kp3zcqBxJjkfc-207" value="" style="group;fontColor=#97D077;" vertex="1" connectable="0" parent="1">
          <mxGeometry x="-1150" y="162" width="250" height="660" as="geometry" />
        </mxCell>
        <mxCell id="yo6jUP9kp3zcqBxJjkfc-160" value="" style="rounded=1;whiteSpace=wrap;html=1;" vertex="1" parent="yo6jUP9kp3zcqBxJjkfc-207">
          <mxGeometry width="250" height="660" as="geometry" />
        </mxCell>
        <mxCell id="yo6jUP9kp3zcqBxJjkfc-54" value="Wolverine" style="text;html=1;align=center;verticalAlign=middle;whiteSpace=wrap;rounded=0;fontFamily=Lucida Console;" vertex="1" parent="yo6jUP9kp3zcqBxJjkfc-207">
          <mxGeometry x="110" y="120" width="60" height="30" as="geometry" />
        </mxCell>
        <mxCell id="yo6jUP9kp3zcqBxJjkfc-55" value="&amp;nbsp;Harvester" style="text;html=1;align=center;verticalAlign=middle;whiteSpace=wrap;rounded=0;fontFamily=Lucida Console;" vertex="1" parent="yo6jUP9kp3zcqBxJjkfc-207">
          <mxGeometry x="110" y="60" width="70" height="30" as="geometry" />
        </mxCell>
        <mxCell id="yo6jUP9kp3zcqBxJjkfc-57" value="Titan" style="text;html=1;align=center;verticalAlign=middle;whiteSpace=wrap;rounded=0;fontFamily=Lucida Console;" vertex="1" parent="yo6jUP9kp3zcqBxJjkfc-207">
          <mxGeometry x="100" y="90" width="60" height="30" as="geometry" />
        </mxCell>
        <mxCell id="yo6jUP9kp3zcqBxJjkfc-59" value="APC Amphibie" style="text;html=1;align=center;verticalAlign=middle;whiteSpace=wrap;rounded=0;fontFamily=Lucida Console;" vertex="1" parent="yo6jUP9kp3zcqBxJjkfc-207">
          <mxGeometry x="105" y="160" width="95" height="30" as="geometry" />
        </mxCell>
        <mxCell id="yo6jUP9kp3zcqBxJjkfc-64" value="&lt;font data-darkreader-inline-color=&quot;&quot; style=&quot;--darkreader-inline-color: #8dff1a;&quot; color=&quot;#80ff00&quot;&gt;Mobile war factory&lt;/font&gt;" style="text;html=1;align=center;verticalAlign=middle;whiteSpace=wrap;rounded=0;fontFamily=Lucida Console;" vertex="1" parent="yo6jUP9kp3zcqBxJjkfc-207">
          <mxGeometry x="105" y="510" width="90" height="30" as="geometry" />
        </mxCell>
        <mxCell id="yo6jUP9kp3zcqBxJjkfc-67" value="&lt;font data-darkreader-inline-color=&quot;&quot; style=&quot;--darkreader-inline-color: #8dff1a;&quot; color=&quot;#80ff00&quot;&gt;Mobile EMP&lt;/font&gt;" style="text;html=1;align=center;verticalAlign=middle;whiteSpace=wrap;rounded=0;fontFamily=Lucida Console;" vertex="1" parent="yo6jUP9kp3zcqBxJjkfc-207">
          <mxGeometry x="110" y="350" width="80" height="30" as="geometry" />
        </mxCell>
        <mxCell id="yo6jUP9kp3zcqBxJjkfc-79" value="&lt;font data-darkreader-inline-color=&quot;&quot; style=&quot;--darkreader-inline-color: #8dff1a;&quot; color=&quot;#80ff00&quot;&gt;Air Drop&lt;/font&gt;" style="text;html=1;align=center;verticalAlign=middle;whiteSpace=wrap;rounded=0;fontFamily=Lucida Console;" vertex="1" parent="yo6jUP9kp3zcqBxJjkfc-207">
          <mxGeometry x="110" y="620" width="70" height="30" as="geometry" />
        </mxCell>
        <mxCell id="yo6jUP9kp3zcqBxJjkfc-128" value="Vehicules" style="text;html=1;align=center;verticalAlign=middle;whiteSpace=wrap;rounded=0;fontFamily=Lucida Console;fontStyle=5" vertex="1" parent="yo6jUP9kp3zcqBxJjkfc-207">
          <mxGeometry x="95" y="10" width="60" height="30" as="geometry" />
        </mxCell>
        <mxCell id="yo6jUP9kp3zcqBxJjkfc-162" style="edgeStyle=orthogonalEdgeStyle;rounded=0;orthogonalLoop=1;jettySize=auto;html=1;exitX=1;exitY=0.5;exitDx=0;exitDy=0;entryX=0;entryY=0.5;entryDx=0;entryDy=0;" edge="1" parent="yo6jUP9kp3zcqBxJjkfc-207" source="yo6jUP9kp3zcqBxJjkfc-137" target="yo6jUP9kp3zcqBxJjkfc-67">
          <mxGeometry relative="1" as="geometry" />
        </mxCell>
        <mxCell id="yo6jUP9kp3zcqBxJjkfc-137" value="EMP" style="text;html=1;align=center;verticalAlign=middle;whiteSpace=wrap;rounded=0;fontFamily=Lucida Console;" vertex="1" parent="yo6jUP9kp3zcqBxJjkfc-207">
          <mxGeometry x="10" y="350" width="60" height="30" as="geometry" />
        </mxCell>
        <mxCell id="yo6jUP9kp3zcqBxJjkfc-143" style="edgeStyle=orthogonalEdgeStyle;rounded=0;orthogonalLoop=1;jettySize=auto;html=1;exitX=1;exitY=0.5;exitDx=0;exitDy=0;entryX=0;entryY=0.5;entryDx=0;entryDy=0;" edge="1" parent="yo6jUP9kp3zcqBxJjkfc-207" source="yo6jUP9kp3zcqBxJjkfc-140" target="yo6jUP9kp3zcqBxJjkfc-55">
          <mxGeometry relative="1" as="geometry" />
        </mxCell>
        <mxCell id="yo6jUP9kp3zcqBxJjkfc-140" value="Tiberium Refiner" style="text;html=1;align=center;verticalAlign=middle;whiteSpace=wrap;rounded=0;fontFamily=Lucida Console;" vertex="1" parent="yo6jUP9kp3zcqBxJjkfc-207">
          <mxGeometry x="10" y="60" width="60" height="30" as="geometry" />
        </mxCell>
        <mxCell id="yo6jUP9kp3zcqBxJjkfc-149" value="" style="edgeStyle=orthogonalEdgeStyle;rounded=0;orthogonalLoop=1;jettySize=auto;html=1;" edge="1" parent="yo6jUP9kp3zcqBxJjkfc-207" source="yo6jUP9kp3zcqBxJjkfc-144" target="yo6jUP9kp3zcqBxJjkfc-146">
          <mxGeometry relative="1" as="geometry" />
        </mxCell>
        <mxCell id="yo6jUP9kp3zcqBxJjkfc-152" style="edgeStyle=orthogonalEdgeStyle;rounded=0;orthogonalLoop=1;jettySize=auto;html=1;exitX=1;exitY=0.5;exitDx=0;exitDy=0;entryX=0;entryY=0.5;entryDx=0;entryDy=0;" edge="1" parent="yo6jUP9kp3zcqBxJjkfc-207" source="yo6jUP9kp3zcqBxJjkfc-144" target="yo6jUP9kp3zcqBxJjkfc-145">
          <mxGeometry relative="1" as="geometry" />
        </mxCell>
        <mxCell id="yo6jUP9kp3zcqBxJjkfc-144" value="&lt;div&gt;Radar&lt;/div&gt;" style="text;html=1;align=center;verticalAlign=middle;whiteSpace=wrap;rounded=0;fontFamily=Lucida Console;" vertex="1" parent="yo6jUP9kp3zcqBxJjkfc-207">
          <mxGeometry x="10" y="200" width="60" height="30" as="geometry" />
        </mxCell>
        <mxCell id="yo6jUP9kp3zcqBxJjkfc-145" value="&amp;nbsp;Hovercraft" style="text;html=1;align=center;verticalAlign=middle;whiteSpace=wrap;rounded=0;fontFamily=Lucida Console;" vertex="1" parent="yo6jUP9kp3zcqBxJjkfc-207">
          <mxGeometry x="110" y="200" width="80" height="30" as="geometry" />
        </mxCell>
        <mxCell id="yo6jUP9kp3zcqBxJjkfc-155" style="edgeStyle=orthogonalEdgeStyle;rounded=0;orthogonalLoop=1;jettySize=auto;html=1;exitX=0;exitY=0.5;exitDx=0;exitDy=0;entryX=0;entryY=0.5;entryDx=0;entryDy=0;" edge="1" parent="yo6jUP9kp3zcqBxJjkfc-207" source="yo6jUP9kp3zcqBxJjkfc-146" target="yo6jUP9kp3zcqBxJjkfc-148">
          <mxGeometry relative="1" as="geometry" />
        </mxCell>
        <mxCell id="yo6jUP9kp3zcqBxJjkfc-156" style="edgeStyle=orthogonalEdgeStyle;rounded=0;orthogonalLoop=1;jettySize=auto;html=1;exitX=0;exitY=0.5;exitDx=0;exitDy=0;entryX=0;entryY=0.5;entryDx=0;entryDy=0;" edge="1" parent="yo6jUP9kp3zcqBxJjkfc-207" source="yo6jUP9kp3zcqBxJjkfc-146" target="yo6jUP9kp3zcqBxJjkfc-147">
          <mxGeometry relative="1" as="geometry" />
        </mxCell>
        <mxCell id="yo6jUP9kp3zcqBxJjkfc-146" value="&lt;font data-darkreader-inline-color=&quot;&quot; style=&quot;--darkreader-inline-color: #8dff1a;&quot; color=&quot;#80ff00&quot;&gt;Juggernaut&lt;/font&gt;" style="text;html=1;align=center;verticalAlign=middle;whiteSpace=wrap;rounded=0;fontFamily=Lucida Console;" vertex="1" parent="yo6jUP9kp3zcqBxJjkfc-207">
          <mxGeometry x="110" y="230" width="80" height="30" as="geometry" />
        </mxCell>
        <mxCell id="yo6jUP9kp3zcqBxJjkfc-147" value="Limpet drone" style="text;html=1;align=center;verticalAlign=middle;whiteSpace=wrap;rounded=0;fontFamily=Lucida Console;" vertex="1" parent="yo6jUP9kp3zcqBxJjkfc-207">
          <mxGeometry x="110" y="270" width="90" height="30" as="geometry" />
        </mxCell>
        <mxCell id="yo6jUP9kp3zcqBxJjkfc-148" value="Mobile sensor" style="text;html=1;align=center;verticalAlign=middle;whiteSpace=wrap;rounded=0;fontFamily=Lucida Console;" vertex="1" parent="yo6jUP9kp3zcqBxJjkfc-207">
          <mxGeometry x="110" y="310" width="110" height="30" as="geometry" />
        </mxCell>
        <mxCell id="yo6jUP9kp3zcqBxJjkfc-159" style="edgeStyle=orthogonalEdgeStyle;rounded=0;orthogonalLoop=1;jettySize=auto;html=1;exitX=1;exitY=0.5;exitDx=0;exitDy=0;entryX=0;entryY=0.5;entryDx=0;entryDy=0;" edge="1" parent="yo6jUP9kp3zcqBxJjkfc-207" source="yo6jUP9kp3zcqBxJjkfc-157" target="yo6jUP9kp3zcqBxJjkfc-59">
          <mxGeometry relative="1" as="geometry" />
        </mxCell>
        <mxCell id="yo6jUP9kp3zcqBxJjkfc-157" value="Barracks" style="text;html=1;align=center;verticalAlign=middle;whiteSpace=wrap;rounded=0;fontFamily=Lucida Console;" vertex="1" parent="yo6jUP9kp3zcqBxJjkfc-207">
          <mxGeometry x="10" y="160" width="60" height="30" as="geometry" />
        </mxCell>
        <mxCell id="yo6jUP9kp3zcqBxJjkfc-168" style="edgeStyle=orthogonalEdgeStyle;rounded=0;orthogonalLoop=1;jettySize=auto;html=1;exitX=1;exitY=0.5;exitDx=0;exitDy=0;entryX=0;entryY=0.5;entryDx=0;entryDy=0;" edge="1" parent="yo6jUP9kp3zcqBxJjkfc-207" source="yo6jUP9kp3zcqBxJjkfc-164" target="yo6jUP9kp3zcqBxJjkfc-165">
          <mxGeometry relative="1" as="geometry" />
        </mxCell>
        <mxCell id="yo6jUP9kp3zcqBxJjkfc-170" style="edgeStyle=orthogonalEdgeStyle;rounded=0;orthogonalLoop=1;jettySize=auto;html=1;exitX=1;exitY=0.5;exitDx=0;exitDy=0;entryX=0;entryY=0.5;entryDx=0;entryDy=0;" edge="1" parent="yo6jUP9kp3zcqBxJjkfc-207" source="yo6jUP9kp3zcqBxJjkfc-164" target="yo6jUP9kp3zcqBxJjkfc-166">
          <mxGeometry relative="1" as="geometry" />
        </mxCell>
        <mxCell id="yo6jUP9kp3zcqBxJjkfc-171" style="edgeStyle=orthogonalEdgeStyle;rounded=0;orthogonalLoop=1;jettySize=auto;html=1;exitX=1;exitY=0.5;exitDx=0;exitDy=0;entryX=0;entryY=0.5;entryDx=0;entryDy=0;" edge="1" parent="yo6jUP9kp3zcqBxJjkfc-207" source="yo6jUP9kp3zcqBxJjkfc-164" target="yo6jUP9kp3zcqBxJjkfc-167">
          <mxGeometry relative="1" as="geometry" />
        </mxCell>
        <mxCell id="yo6jUP9kp3zcqBxJjkfc-164" value="Tech Center" style="text;html=1;align=center;verticalAlign=middle;whiteSpace=wrap;rounded=0;fontFamily=Lucida Console;" vertex="1" parent="yo6jUP9kp3zcqBxJjkfc-207">
          <mxGeometry x="10" y="395" width="60" height="30" as="geometry" />
        </mxCell>
        <mxCell id="yo6jUP9kp3zcqBxJjkfc-165" value="MCV" style="text;html=1;align=center;verticalAlign=middle;whiteSpace=wrap;rounded=0;fontFamily=Lucida Console;" vertex="1" parent="yo6jUP9kp3zcqBxJjkfc-207">
          <mxGeometry x="105" y="394.5" width="60" height="30" as="geometry" />
        </mxCell>
        <mxCell id="yo6jUP9kp3zcqBxJjkfc-166" value="Disruptor" style="text;html=1;align=center;verticalAlign=middle;whiteSpace=wrap;rounded=0;fontFamily=Lucida Console;" vertex="1" parent="yo6jUP9kp3zcqBxJjkfc-207">
          <mxGeometry x="110" y="430" width="75" height="30" as="geometry" />
        </mxCell>
        <mxCell id="yo6jUP9kp3zcqBxJjkfc-167" value="&lt;div&gt;Mammoth Mk II&lt;/div&gt;" style="text;html=1;align=center;verticalAlign=middle;whiteSpace=wrap;rounded=0;fontFamily=Lucida Console;" vertex="1" parent="yo6jUP9kp3zcqBxJjkfc-207">
          <mxGeometry x="110" y="470" width="100" height="30" as="geometry" />
        </mxCell>
        <mxCell id="yo6jUP9kp3zcqBxJjkfc-173" style="edgeStyle=orthogonalEdgeStyle;rounded=0;orthogonalLoop=1;jettySize=auto;html=1;exitX=1;exitY=0.5;exitDx=0;exitDy=0;entryX=0;entryY=0.5;entryDx=0;entryDy=0;" edge="1" parent="yo6jUP9kp3zcqBxJjkfc-207" source="yo6jUP9kp3zcqBxJjkfc-172" target="yo6jUP9kp3zcqBxJjkfc-64">
          <mxGeometry relative="1" as="geometry" />
        </mxCell>
        <mxCell id="yo6jUP9kp3zcqBxJjkfc-176" style="edgeStyle=orthogonalEdgeStyle;rounded=0;orthogonalLoop=1;jettySize=auto;html=1;exitX=1;exitY=0.5;exitDx=0;exitDy=0;entryX=0;entryY=0.5;entryDx=0;entryDy=0;" edge="1" parent="yo6jUP9kp3zcqBxJjkfc-207" source="yo6jUP9kp3zcqBxJjkfc-172" target="yo6jUP9kp3zcqBxJjkfc-174">
          <mxGeometry relative="1" as="geometry" />
        </mxCell>
        <mxCell id="yo6jUP9kp3zcqBxJjkfc-177" style="edgeStyle=orthogonalEdgeStyle;rounded=0;orthogonalLoop=1;jettySize=auto;html=1;exitX=1;exitY=0.5;exitDx=0;exitDy=0;entryX=0;entryY=0.5;entryDx=0;entryDy=0;" edge="1" parent="yo6jUP9kp3zcqBxJjkfc-207" source="yo6jUP9kp3zcqBxJjkfc-172" target="yo6jUP9kp3zcqBxJjkfc-175">
          <mxGeometry relative="1" as="geometry" />
        </mxCell>
        <mxCell id="yo6jUP9kp3zcqBxJjkfc-178" style="edgeStyle=orthogonalEdgeStyle;rounded=0;orthogonalLoop=1;jettySize=auto;html=1;exitX=1;exitY=0.5;exitDx=0;exitDy=0;entryX=0;entryY=0.5;entryDx=0;entryDy=0;" edge="1" parent="yo6jUP9kp3zcqBxJjkfc-207" source="yo6jUP9kp3zcqBxJjkfc-172" target="yo6jUP9kp3zcqBxJjkfc-79">
          <mxGeometry relative="1" as="geometry" />
        </mxCell>
        <mxCell id="yo6jUP9kp3zcqBxJjkfc-172" value="Upgrade center" style="text;html=1;align=center;verticalAlign=middle;whiteSpace=wrap;rounded=0;fontFamily=Lucida Console;" vertex="1" parent="yo6jUP9kp3zcqBxJjkfc-207">
          <mxGeometry x="10" y="510" width="60" height="30" as="geometry" />
        </mxCell>
        <mxCell id="yo6jUP9kp3zcqBxJjkfc-174" value="Seeker" style="text;html=1;align=center;verticalAlign=middle;whiteSpace=wrap;rounded=0;fontFamily=Lucida Console;" vertex="1" parent="yo6jUP9kp3zcqBxJjkfc-207">
          <mxGeometry x="110" y="550" width="60" height="30" as="geometry" />
        </mxCell>
        <mxCell id="yo6jUP9kp3zcqBxJjkfc-175" value="Ion Canon" style="text;html=1;align=center;verticalAlign=middle;whiteSpace=wrap;rounded=0;fontFamily=Lucida Console;" vertex="1" parent="yo6jUP9kp3zcqBxJjkfc-207">
          <mxGeometry x="110" y="580" width="80" height="30" as="geometry" />
        </mxCell>
      </root>
    </mxGraphModel>
  </diagram>
</mxfile>
